# xmcd CD database file
#
# Track frame offsets:
#	150
#	26495
#	51169
#	73502
#	97509
#	117977
#	139600
#	167061
#	183697
#	209208
#	229521
#
# Disc length: 3323 seconds
#
# Revision: 0
# Processed by: cddbd v1.5PL3 Copyright (c) Steve Scherf et al.
# Submitted via: CDex 1.51
#
DISCID=950cf90b
DTITLE=David Antony Clark - Man Who Painted Caves
DYEAR=1999
DGENRE=New Age
TTITLE0=Forest Gods
TTITLE1=Cry of the Spirit-Cat
TTITLE2=The Bison Hunters
TTITLE3=The Shaman's Wings
TTITLE4=The Man Who Painted Caves
TTITLE5=A Night in the Garden With Eve
TTITLE6=Black Moon
TTITLE7=Limestone Cathedrals
TTITLE8=Sacred Chambers
TTITLE9=The Hall of Dancing Horses
TTITLE10=Silent Fire
EXTD=YEAR: 1999
EXTT0=
EXTT1=
EXTT2=
EXTT3=
EXTT4=
EXTT5=
EXTT6=
EXTT7=
EXTT8=
EXTT9=
EXTT10=
PLAYORDER=
